<svg width="237" height="11" viewBox="0 0 237 11" fill="none" xmlns="http://www.w3.org/2000/svg">
<path d="M6.1543 5.49609H7.00977C7.00977 6.10938 6.83398 6.57031 6.48242 6.87891C6.13477 7.18359 5.66211 7.33594 5.06445 7.33594C4.65039 7.33594 4.29102 7.24023 3.98633 7.04883C3.68555 6.85742 3.45117 6.5918 3.2832 6.25195C3.11914 5.91211 3.03711 5.51758 3.03711 5.06836V4.39453C3.03711 3.94531 3.11914 3.55078 3.2832 3.21094C3.45117 2.87109 3.68555 2.60547 3.98633 2.41406C4.29102 2.22266 4.65039 2.12695 5.06445 2.12695C5.66211 2.12695 6.13672 2.2793 6.48828 2.58398C6.83984 2.88867 7.01562 3.34766 7.01562 3.96094H6.16016C6.16016 3.57422 6.06641 3.29688 5.87891 3.12891C5.69531 2.96094 5.42383 2.87695 5.06445 2.87695C4.80664 2.87695 4.58984 2.94141 4.41406 3.07031C4.23828 3.19922 4.10547 3.37891 4.01562 3.60938C3.92578 3.83594 3.88086 4.0957 3.88086 4.38867V5.06836C3.88086 5.36523 3.92578 5.62891 4.01562 5.85938C4.10547 6.08594 4.23828 6.26367 4.41406 6.39258C4.58984 6.52148 4.80664 6.58594 5.06445 6.58594C5.42383 6.58594 5.69531 6.50195 5.87891 6.33398C6.0625 6.16602 6.1543 5.88672 6.1543 5.49609ZM1.66016 4.72852C1.66016 5.24805 1.75 5.73242 1.92969 6.18164C2.10938 6.63086 2.35938 7.02344 2.67969 7.35938C3 7.69531 3.37109 7.95703 3.79297 8.14453C4.21484 8.33203 4.66602 8.42578 5.14648 8.42578C5.62695 8.42578 6.07617 8.33203 6.49414 8.14453C6.91602 7.95703 7.28516 7.69531 7.60156 7.35938C7.92188 7.02344 8.17188 6.63086 8.35156 6.18164C8.53125 5.73242 8.62109 5.24805 8.62109 4.72852C8.62109 4.20508 8.53125 3.7207 8.35156 3.27539C8.17188 2.83008 7.92188 2.44141 7.60156 2.10938C7.28516 1.77344 6.91602 1.51367 6.49414 1.33008C6.07617 1.14258 5.62695 1.04883 5.14648 1.04883C4.66602 1.04883 4.21484 1.14258 3.79297 1.33008C3.37109 1.51367 3 1.77344 2.67969 2.10938C2.35938 2.44141 2.10938 2.83008 1.92969 3.27539C1.75 3.7207 1.66016 4.20508 1.66016 4.72852ZM0.986328 4.72852C0.986328 4.10742 1.09375 3.53125 1.30859 3C1.52344 2.46875 1.82227 2.00586 2.20508 1.61133C2.58789 1.21289 3.0293 0.904297 3.5293 0.685547C4.0332 0.462891 4.57227 0.351562 5.14648 0.351562C5.7207 0.351562 6.25781 0.462891 6.75781 0.685547C7.26172 0.904297 7.70312 1.21289 8.08203 1.61133C8.46484 2.00586 8.76367 2.46875 8.97852 3C9.19336 3.53125 9.30078 4.10742 9.30078 4.72852C9.30078 5.34961 9.19336 5.92578 8.97852 6.45703C8.76367 6.98828 8.46484 7.45508 8.08203 7.85742C7.70312 8.25586 7.26172 8.56641 6.75781 8.78906C6.25781 9.01172 5.7207 9.12305 5.14648 9.12305C4.57227 9.12305 4.0332 9.01172 3.5293 8.78906C3.0293 8.56641 2.58789 8.25586 2.20508 7.85742C1.82227 7.45508 1.52344 6.98828 1.30859 6.45703C1.09375 5.92578 0.986328 5.34961 0.986328 4.72852ZM19.1562 8.10938V9H13.5723V8.2207L16.3672 5.10938C16.7109 4.72656 16.9766 4.40234 17.1641 4.13672C17.3555 3.86719 17.4883 3.62695 17.5625 3.41602C17.6406 3.20117 17.6797 2.98242 17.6797 2.75977C17.6797 2.47852 17.6211 2.22461 17.5039 1.99805C17.3906 1.76758 17.2227 1.58398 17 1.44727C16.7773 1.31055 16.5078 1.24219 16.1914 1.24219C15.8125 1.24219 15.4961 1.31641 15.2422 1.46484C14.9922 1.60938 14.8047 1.8125 14.6797 2.07422C14.5547 2.33594 14.4922 2.63672 14.4922 2.97656H13.4082C13.4082 2.49609 13.5137 2.05664 13.7246 1.6582C13.9355 1.25977 14.248 0.943359 14.6621 0.708984C15.0762 0.470703 15.5859 0.351562 16.1914 0.351562C16.7305 0.351562 17.1914 0.447266 17.5742 0.638672C17.957 0.826172 18.25 1.0918 18.4531 1.43555C18.6602 1.77539 18.7637 2.17383 18.7637 2.63086C18.7637 2.88086 18.7207 3.13477 18.6348 3.39258C18.5527 3.64648 18.4375 3.90039 18.2891 4.1543C18.1445 4.4082 17.9746 4.6582 17.7793 4.9043C17.5879 5.15039 17.3828 5.39258 17.1641 5.63086L14.8789 8.10938H19.1562ZM25.6719 4.05469V5.35547C25.6719 6.05469 25.6094 6.64453 25.4844 7.125C25.3594 7.60547 25.1797 7.99219 24.9453 8.28516C24.7109 8.57812 24.4277 8.79102 24.0957 8.92383C23.7676 9.05273 23.3965 9.11719 22.9824 9.11719C22.6543 9.11719 22.3516 9.07617 22.0742 8.99414C21.7969 8.91211 21.5469 8.78125 21.3242 8.60156C21.1055 8.41797 20.918 8.17969 20.7617 7.88672C20.6055 7.59375 20.4863 7.23828 20.4043 6.82031C20.3223 6.40234 20.2812 5.91406 20.2812 5.35547V4.05469C20.2812 3.35547 20.3438 2.76953 20.4688 2.29688C20.5977 1.82422 20.7793 1.44531 21.0137 1.16016C21.248 0.871094 21.5293 0.664062 21.8574 0.539062C22.1895 0.414063 22.5605 0.351562 22.9707 0.351562C23.3027 0.351562 23.6074 0.392578 23.8848 0.474609C24.166 0.552734 24.416 0.679688 24.6348 0.855469C24.8535 1.02734 25.0391 1.25781 25.1914 1.54688C25.3477 1.83203 25.4668 2.18164 25.5488 2.5957C25.6309 3.00977 25.6719 3.49609 25.6719 4.05469ZM24.582 5.53125V3.87305C24.582 3.49023 24.5586 3.1543 24.5117 2.86523C24.4688 2.57227 24.4043 2.32227 24.3184 2.11523C24.2324 1.9082 24.123 1.74023 23.9902 1.61133C23.8613 1.48242 23.7109 1.38867 23.5391 1.33008C23.3711 1.26758 23.1816 1.23633 22.9707 1.23633C22.7129 1.23633 22.4844 1.28516 22.2852 1.38281C22.0859 1.47656 21.918 1.62695 21.7812 1.83398C21.6484 2.04102 21.5469 2.3125 21.4766 2.64844C21.4062 2.98437 21.3711 3.39258 21.3711 3.87305V5.53125C21.3711 5.91406 21.3926 6.25195 21.4355 6.54492C21.4824 6.83789 21.5508 7.0918 21.6406 7.30664C21.7305 7.51758 21.8398 7.69141 21.9688 7.82812C22.0977 7.96484 22.2461 8.06641 22.4141 8.13281C22.5859 8.19531 22.7754 8.22656 22.9824 8.22656C23.248 8.22656 23.4805 8.17578 23.6797 8.07422C23.8789 7.97266 24.0449 7.81445 24.1777 7.59961C24.3145 7.38086 24.416 7.10156 24.4824 6.76172C24.5488 6.41797 24.582 6.00781 24.582 5.53125ZM32.6562 8.10938V9H27.0723V8.2207L29.8672 5.10938C30.2109 4.72656 30.4766 4.40234 30.6641 4.13672C30.8555 3.86719 30.9883 3.62695 31.0625 3.41602C31.1406 3.20117 31.1797 2.98242 31.1797 2.75977C31.1797 2.47852 31.1211 2.22461 31.0039 1.99805C30.8906 1.76758 30.7227 1.58398 30.5 1.44727C30.2773 1.31055 30.0078 1.24219 29.6914 1.24219C29.3125 1.24219 28.9961 1.31641 28.7422 1.46484C28.4922 1.60938 28.3047 1.8125 28.1797 2.07422C28.0547 2.33594 27.9922 2.63672 27.9922 2.97656H26.9082C26.9082 2.49609 27.0137 2.05664 27.2246 1.6582C27.4355 1.25977 27.748 0.943359 28.1621 0.708984C28.5762 0.470703 29.0859 0.351562 29.6914 0.351562C30.2305 0.351562 30.6914 0.447266 31.0742 0.638672C31.457 0.826172 31.75 1.0918 31.9531 1.43555C32.1602 1.77539 32.2637 2.17383 32.2637 2.63086C32.2637 2.88086 32.2207 3.13477 32.1348 3.39258C32.0527 3.64648 31.9375 3.90039 31.7891 4.1543C31.6445 4.4082 31.4746 4.6582 31.2793 4.9043C31.0879 5.15039 30.8828 5.39258 30.6641 5.63086L28.3789 8.10938H32.6562ZM39.4062 8.10938V9H33.8223V8.2207L36.6172 5.10938C36.9609 4.72656 37.2266 4.40234 37.4141 4.13672C37.6055 3.86719 37.7383 3.62695 37.8125 3.41602C37.8906 3.20117 37.9297 2.98242 37.9297 2.75977C37.9297 2.47852 37.8711 2.22461 37.7539 1.99805C37.6406 1.76758 37.4727 1.58398 37.25 1.44727C37.0273 1.31055 36.7578 1.24219 36.4414 1.24219C36.0625 1.24219 35.7461 1.31641 35.4922 1.46484C35.2422 1.60938 35.0547 1.8125 34.9297 2.07422C34.8047 2.33594 34.7422 2.63672 34.7422 2.97656H33.6582C33.6582 2.49609 33.7637 2.05664 33.9746 1.6582C34.1855 1.25977 34.498 0.943359 34.9121 0.708984C35.3262 0.470703 35.8359 0.351562 36.4414 0.351562C36.9805 0.351562 37.4414 0.447266 37.8242 0.638672C38.207 0.826172 38.5 1.0918 38.7031 1.43555C38.9102 1.77539 39.0137 2.17383 39.0137 2.63086C39.0137 2.88086 38.9707 3.13477 38.8848 3.39258C38.8027 3.64648 38.6875 3.90039 38.5391 4.1543C38.3945 4.4082 38.2246 4.6582 38.0293 4.9043C37.8379 5.15039 37.6328 5.39258 37.4141 5.63086L35.1289 8.10938H39.4062ZM51.5059 4.29492V5.18555H43.6777V4.29492H51.5059ZM61.4844 8.10938V9H55.9004V8.2207L58.6953 5.10938C59.0391 4.72656 59.3047 4.40234 59.4922 4.13672C59.6836 3.86719 59.8164 3.62695 59.8906 3.41602C59.9688 3.20117 60.0078 2.98242 60.0078 2.75977C60.0078 2.47852 59.9492 2.22461 59.832 1.99805C59.7188 1.76758 59.5508 1.58398 59.3281 1.44727C59.1055 1.31055 58.8359 1.24219 58.5195 1.24219C58.1406 1.24219 57.8242 1.31641 57.5703 1.46484C57.3203 1.60938 57.1328 1.8125 57.0078 2.07422C56.8828 2.33594 56.8203 2.63672 56.8203 2.97656H55.7363C55.7363 2.49609 55.8418 2.05664 56.0527 1.6582C56.2637 1.25977 56.5762 0.943359 56.9902 0.708984C57.4043 0.470703 57.9141 0.351562 58.5195 0.351562C59.0586 0.351562 59.5195 0.447266 59.9023 0.638672C60.2852 0.826172 60.5781 1.0918 60.7812 1.43555C60.9883 1.77539 61.0918 2.17383 61.0918 2.63086C61.0918 2.88086 61.0488 3.13477 60.9629 3.39258C60.8809 3.64648 60.7656 3.90039 60.6172 4.1543C60.4727 4.4082 60.3027 4.6582 60.1074 4.9043C59.916 5.15039 59.7109 5.39258 59.4922 5.63086L57.207 8.10938H61.4844ZM68 4.05469V5.35547C68 6.05469 67.9375 6.64453 67.8125 7.125C67.6875 7.60547 67.5078 7.99219 67.2734 8.28516C67.0391 8.57812 66.7559 8.79102 66.4238 8.92383C66.0957 9.05273 65.7246 9.11719 65.3105 9.11719C64.9824 9.11719 64.6797 9.07617 64.4023 8.99414C64.125 8.91211 63.875 8.78125 63.6523 8.60156C63.4336 8.41797 63.2461 8.17969 63.0898 7.88672C62.9336 7.59375 62.8145 7.23828 62.7324 6.82031C62.6504 6.40234 62.6094 5.91406 62.6094 5.35547V4.05469C62.6094 3.35547 62.6719 2.76953 62.7969 2.29688C62.9258 1.82422 63.1074 1.44531 63.3418 1.16016C63.5762 0.871094 63.8574 0.664062 64.1855 0.539062C64.5176 0.414063 64.8887 0.351562 65.2988 0.351562C65.6309 0.351562 65.9355 0.392578 66.2129 0.474609C66.4941 0.552734 66.7441 0.679688 66.9629 0.855469C67.1816 1.02734 67.3672 1.25781 67.5195 1.54688C67.6758 1.83203 67.7949 2.18164 67.877 2.5957C67.959 3.00977 68 3.49609 68 4.05469ZM66.9102 5.53125V3.87305C66.9102 3.49023 66.8867 3.1543 66.8398 2.86523C66.7969 2.57227 66.7324 2.32227 66.6465 2.11523C66.5605 1.9082 66.4512 1.74023 66.3184 1.61133C66.1895 1.48242 66.0391 1.38867 65.8672 1.33008C65.6992 1.26758 65.5098 1.23633 65.2988 1.23633C65.041 1.23633 64.8125 1.28516 64.6133 1.38281C64.4141 1.47656 64.2461 1.62695 64.1094 1.83398C63.9766 2.04102 63.875 2.3125 63.8047 2.64844C63.7344 2.98437 63.6992 3.39258 63.6992 3.87305V5.53125C63.6992 5.91406 63.7207 6.25195 63.7637 6.54492C63.8105 6.83789 63.8789 7.0918 63.9688 7.30664C64.0586 7.51758 64.168 7.69141 64.2969 7.82812C64.4258 7.96484 64.5742 8.06641 64.7422 8.13281C64.9141 8.19531 65.1035 8.22656 65.3105 8.22656C65.5762 8.22656 65.8086 8.17578 66.0078 8.07422C66.207 7.97266 66.373 7.81445 66.5059 7.59961C66.6426 7.38086 66.7441 7.10156 66.8105 6.76172C66.877 6.41797 66.9102 6.00781 66.9102 5.53125ZM74.9844 8.10938V9H69.4004V8.2207L72.1953 5.10938C72.5391 4.72656 72.8047 4.40234 72.9922 4.13672C73.1836 3.86719 73.3164 3.62695 73.3906 3.41602C73.4688 3.20117 73.5078 2.98242 73.5078 2.75977C73.5078 2.47852 73.4492 2.22461 73.332 1.99805C73.2188 1.76758 73.0508 1.58398 72.8281 1.44727C72.6055 1.31055 72.3359 1.24219 72.0195 1.24219C71.6406 1.24219 71.3242 1.31641 71.0703 1.46484C70.8203 1.60938 70.6328 1.8125 70.5078 2.07422C70.3828 2.33594 70.3203 2.63672 70.3203 2.97656H69.2363C69.2363 2.49609 69.3418 2.05664 69.5527 1.6582C69.7637 1.25977 70.0762 0.943359 70.4902 0.708984C70.9043 0.470703 71.4141 0.351562 72.0195 0.351562C72.5586 0.351562 73.0195 0.447266 73.4023 0.638672C73.7852 0.826172 74.0781 1.0918 74.2812 1.43555C74.4883 1.77539 74.5918 2.17383 74.5918 2.63086C74.5918 2.88086 74.5488 3.13477 74.4629 3.39258C74.3809 3.64648 74.2656 3.90039 74.1172 4.1543C73.9727 4.4082 73.8027 4.6582 73.6074 4.9043C73.416 5.15039 73.2109 5.39258 72.9922 5.63086L70.707 8.10938H74.9844ZM77.7266 4.20117H78.5C78.8789 4.20117 79.1914 4.13867 79.4375 4.01367C79.6875 3.88477 79.873 3.71094 79.9941 3.49219C80.1191 3.26953 80.1816 3.01953 80.1816 2.74219C80.1816 2.41406 80.127 2.13867 80.0176 1.91602C79.9082 1.69336 79.7441 1.52539 79.5254 1.41211C79.3066 1.29883 79.0293 1.24219 78.6934 1.24219C78.3887 1.24219 78.1191 1.30273 77.8848 1.42383C77.6543 1.54102 77.4727 1.70898 77.3398 1.92773C77.2109 2.14648 77.1465 2.4043 77.1465 2.70117H76.0625C76.0625 2.26758 76.1719 1.87305 76.3906 1.51758C76.6094 1.16211 76.916 0.878906 77.3105 0.667969C77.709 0.457031 78.1699 0.351562 78.6934 0.351562C79.209 0.351562 79.6602 0.443359 80.0469 0.626953C80.4336 0.806641 80.7344 1.07617 80.9492 1.43555C81.1641 1.79102 81.2715 2.23437 81.2715 2.76562C81.2715 2.98047 81.2207 3.21094 81.1191 3.45703C81.0215 3.69922 80.8672 3.92578 80.6562 4.13672C80.4492 4.34766 80.1797 4.52148 79.8477 4.6582C79.5156 4.79102 79.1172 4.85742 78.6523 4.85742H77.7266V4.20117ZM77.7266 5.0918V4.44141H78.6523C79.1953 4.44141 79.6445 4.50586 80 4.63477C80.3555 4.76367 80.6348 4.93555 80.8379 5.15039C81.0449 5.36523 81.1895 5.60156 81.2715 5.85938C81.3574 6.11328 81.4004 6.36719 81.4004 6.62109C81.4004 7.01953 81.332 7.37305 81.1953 7.68164C81.0625 7.99023 80.873 8.25195 80.627 8.4668C80.3848 8.68164 80.0996 8.84375 79.7715 8.95312C79.4434 9.0625 79.0859 9.11719 78.6992 9.11719C78.3281 9.11719 77.9785 9.06445 77.6504 8.95898C77.3262 8.85352 77.0391 8.70117 76.7891 8.50195C76.5391 8.29883 76.3438 8.05078 76.2031 7.75781C76.0625 7.46094 75.9922 7.12305 75.9922 6.74414H77.0762C77.0762 7.04102 77.1406 7.30078 77.2695 7.52344C77.4023 7.74609 77.5898 7.91992 77.832 8.04492C78.0781 8.16602 78.3672 8.22656 78.6992 8.22656C79.0312 8.22656 79.3164 8.16992 79.5547 8.05664C79.7969 7.93945 79.9824 7.76367 80.1113 7.5293C80.2441 7.29492 80.3105 7 80.3105 6.64453C80.3105 6.28906 80.2363 5.99805 80.0879 5.77148C79.9395 5.54102 79.7285 5.37109 79.4551 5.26172C79.1855 5.14844 78.8672 5.0918 78.5 5.0918H77.7266ZM87.3652 0.46875V9H86.2344V0.46875H87.3652ZM95.7266 4.75195V7.875C95.6211 8.03125 95.4531 8.20703 95.2227 8.40234C94.9922 8.59375 94.6738 8.76172 94.2676 8.90625C93.8652 9.04688 93.3457 9.11719 92.709 9.11719C92.1895 9.11719 91.7109 9.02734 91.2734 8.84766C90.8398 8.66406 90.4629 8.39844 90.1426 8.05078C89.8262 7.69922 89.5801 7.27344 89.4043 6.77344C89.2324 6.26953 89.1465 5.69922 89.1465 5.0625V4.40039C89.1465 3.76367 89.2207 3.19531 89.3691 2.69531C89.5215 2.19531 89.7441 1.77148 90.0371 1.42383C90.3301 1.07227 90.6895 0.806641 91.1152 0.626953C91.541 0.443359 92.0293 0.351562 92.5801 0.351562C93.2324 0.351562 93.7773 0.464844 94.2148 0.691406C94.6562 0.914062 95 1.22266 95.2461 1.61719C95.4961 2.01172 95.6562 2.46094 95.7266 2.96484H94.5957C94.5449 2.65625 94.4434 2.375 94.291 2.12109C94.1426 1.86719 93.9297 1.66406 93.6523 1.51172C93.375 1.35547 93.0176 1.27734 92.5801 1.27734C92.1855 1.27734 91.8438 1.34961 91.5547 1.49414C91.2656 1.63867 91.0273 1.8457 90.8398 2.11523C90.6523 2.38477 90.5117 2.71094 90.418 3.09375C90.3281 3.47656 90.2832 3.9082 90.2832 4.38867V5.0625C90.2832 5.55469 90.3398 5.99414 90.4531 6.38086C90.5703 6.76758 90.7363 7.09766 90.9512 7.37109C91.166 7.64062 91.4219 7.8457 91.7188 7.98633C92.0195 8.12695 92.3516 8.19727 92.7148 8.19727C93.1172 8.19727 93.4434 8.16406 93.6934 8.09766C93.9434 8.02734 94.1387 7.94531 94.2793 7.85156C94.4199 7.75391 94.5273 7.66211 94.6016 7.57617V5.66602H92.627V4.75195H95.7266ZM104.164 0.46875V9H103.027L98.7324 2.41992V9H97.6016V0.46875H98.7324L103.045 7.06641V0.46875H104.164ZM109.432 1.22461L106.607 9H105.453L108.705 0.46875H109.449L109.432 1.22461ZM111.799 9L108.969 1.22461L108.951 0.46875H109.695L112.959 9H111.799ZM111.652 5.8418V6.76758H106.859V5.8418H111.652ZM116.492 0.46875V9H115.379V0.46875H116.492ZM119.234 0.46875V1.39453H112.643V0.46875H119.234ZM119.076 8.42578C119.076 8.24219 119.133 8.08789 119.246 7.96289C119.363 7.83398 119.531 7.76953 119.75 7.76953C119.969 7.76953 120.135 7.83398 120.248 7.96289C120.365 8.08789 120.424 8.24219 120.424 8.42578C120.424 8.60547 120.365 8.75781 120.248 8.88281C120.135 9.00781 119.969 9.07031 119.75 9.07031C119.531 9.07031 119.363 9.00781 119.246 8.88281C119.133 8.75781 119.076 8.60547 119.076 8.42578ZM128.006 6.16992L130.262 0.46875H131.562L128.545 7.57617C128.459 7.77539 128.363 7.96875 128.258 8.15625C128.152 8.33984 128.023 8.50391 127.871 8.64844C127.719 8.79297 127.529 8.9082 127.303 8.99414C127.08 9.08008 126.803 9.12305 126.471 9.12305C126.377 9.12305 126.266 9.11719 126.137 9.10547C126.008 9.09766 125.924 9.08789 125.885 9.07617L125.92 8.17383C125.963 8.18164 126.047 8.18945 126.172 8.19727C126.297 8.20117 126.389 8.20312 126.447 8.20312C126.67 8.20312 126.846 8.1582 126.975 8.06836C127.104 7.97852 127.207 7.86523 127.285 7.72852C127.367 7.58789 127.441 7.44531 127.508 7.30078L128.006 6.16992ZM126.09 0.46875L128.463 5.7832L128.744 6.83203L127.795 6.90234L124.824 0.46875H126.09ZM137.117 6.79102H138.207C138.16 7.23242 138.025 7.62695 137.803 7.97461C137.584 8.32227 137.273 8.5957 136.871 8.79492C136.473 8.99414 135.979 9.09375 135.389 9.09375C134.947 9.09375 134.549 9.01953 134.193 8.87109C133.838 8.71875 133.533 8.50391 133.279 8.22656C133.025 7.94531 132.83 7.60742 132.693 7.21289C132.557 6.81836 132.488 6.37695 132.488 5.88867V5.29102C132.488 4.80273 132.557 4.36133 132.693 3.9668C132.83 3.57227 133.027 3.23438 133.285 2.95312C133.543 2.67188 133.854 2.45703 134.217 2.30859C134.584 2.15625 134.994 2.08008 135.447 2.08008C136.018 2.08008 136.498 2.17969 136.889 2.37891C137.279 2.57422 137.584 2.84766 137.803 3.19922C138.025 3.55078 138.16 3.95508 138.207 4.41211H137.117C137.078 4.11133 136.998 3.85352 136.877 3.63867C136.756 3.42383 136.58 3.25977 136.35 3.14648C136.119 3.0293 135.818 2.9707 135.447 2.9707C135.139 2.9707 134.867 3.02344 134.633 3.12891C134.398 3.23047 134.201 3.38281 134.041 3.58594C133.885 3.78516 133.766 4.02734 133.684 4.3125C133.605 4.59766 133.566 4.92188 133.566 5.28516V5.88867C133.566 6.23242 133.602 6.54688 133.672 6.83203C133.746 7.11328 133.857 7.35742 134.006 7.56445C134.154 7.77148 134.344 7.93164 134.574 8.04492C134.805 8.1543 135.076 8.20898 135.389 8.20898C135.779 8.20898 136.092 8.1543 136.326 8.04492C136.561 7.93555 136.738 7.77539 136.859 7.56445C136.984 7.34961 137.07 7.0918 137.117 6.79102ZM140.621 2.17383V9H139.537V2.17383H140.621ZM150.014 2.17383V3.06445H146.164V2.17383H150.014ZM146.393 2.17383V9H145.309V2.17383H146.393ZM150.893 2.17383V9H149.803V2.17383H150.893ZM155.264 6.43359H153.318V5.53711H155.264C155.623 5.53711 155.914 5.48633 156.137 5.38477C156.359 5.2793 156.523 5.13672 156.629 4.95703C156.734 4.77734 156.787 4.57031 156.787 4.33594C156.787 4.11328 156.734 3.90625 156.629 3.71484C156.523 3.52344 156.359 3.36914 156.137 3.25195C155.914 3.13086 155.623 3.07031 155.264 3.07031H153.611V9H152.527V2.17383H155.264C155.822 2.17383 156.295 2.26758 156.682 2.45508C157.072 2.63867 157.367 2.89258 157.566 3.2168C157.77 3.53711 157.871 3.90625 157.871 4.32422C157.871 4.65234 157.814 4.94727 157.701 5.20898C157.588 5.4668 157.42 5.6875 157.197 5.87109C156.975 6.05469 156.701 6.19531 156.377 6.29297C156.053 6.38672 155.682 6.43359 155.264 6.43359ZM161.814 3.12891L159.488 9H158.381L161.188 2.17383H161.896L161.814 3.12891ZM163.824 9L161.516 3.10547L161.439 2.17383H162.154L164.926 9H163.824ZM163.666 6.47461V7.36523H159.611V6.47461H163.666ZM168.529 5.88867H166.66L166.648 5.06836H168.318C168.6 5.06836 168.842 5.03125 169.045 4.95703C169.248 4.87891 169.404 4.76758 169.514 4.62305C169.623 4.47461 169.678 4.29492 169.678 4.08398C169.678 3.84961 169.623 3.6582 169.514 3.50977C169.404 3.35742 169.242 3.24609 169.027 3.17578C168.816 3.10547 168.555 3.07031 168.242 3.07031H166.947V9H165.863V2.17383H168.242C168.629 2.17383 168.977 2.21094 169.285 2.28516C169.594 2.35938 169.857 2.47266 170.076 2.625C170.299 2.77734 170.469 2.9707 170.586 3.20508C170.703 3.43945 170.762 3.7168 170.762 4.03711C170.762 4.31445 170.688 4.56836 170.539 4.79883C170.391 5.02539 170.178 5.21094 169.9 5.35547C169.623 5.49609 169.287 5.58008 168.893 5.60742L168.529 5.88867ZM168.477 9H166.273L166.83 8.10938H168.477C168.777 8.10938 169.029 8.06641 169.232 7.98047C169.439 7.89453 169.596 7.77148 169.701 7.61133C169.811 7.45117 169.865 7.25977 169.865 7.03711C169.865 6.80664 169.818 6.60547 169.725 6.43359C169.635 6.26172 169.49 6.12891 169.291 6.03516C169.096 5.9375 168.842 5.88867 168.529 5.88867H167.129L167.135 5.06836H169.016L169.25 5.37891C169.625 5.39062 169.938 5.47656 170.188 5.63672C170.441 5.79297 170.633 5.99609 170.762 6.24609C170.891 6.49219 170.955 6.75781 170.955 7.04297C170.955 7.36719 170.896 7.65234 170.779 7.89844C170.666 8.14062 170.5 8.34375 170.281 8.50781C170.066 8.67188 169.807 8.79492 169.502 8.87695C169.197 8.95898 168.855 9 168.477 9ZM175.08 3.12891L172.754 9H171.646L174.453 2.17383H175.162L175.08 3.12891ZM177.09 9L174.781 3.10547L174.705 2.17383H175.42L178.191 9H177.09ZM176.932 6.47461V7.36523H172.877V6.47461H176.932ZM184.385 5.74219H183.529V5.0625H184.361C184.713 5.0625 184.998 5.02148 185.217 4.93945C185.436 4.85352 185.594 4.73438 185.691 4.58203C185.793 4.42578 185.844 4.24219 185.844 4.03125C185.844 3.83203 185.789 3.6543 185.68 3.49805C185.57 3.3418 185.402 3.21875 185.176 3.12891C184.949 3.03516 184.656 2.98828 184.297 2.98828C184.039 2.98828 183.805 3.02344 183.594 3.09375C183.383 3.16406 183.213 3.27148 183.084 3.41602C182.959 3.56055 182.896 3.74609 182.896 3.97266H181.812C181.812 3.67969 181.875 3.41797 182 3.1875C182.129 2.95312 182.305 2.75391 182.527 2.58984C182.754 2.42578 183.018 2.30078 183.318 2.21484C183.619 2.125 183.945 2.08008 184.297 2.08008C184.668 2.08008 185.012 2.11719 185.328 2.19141C185.648 2.26172 185.928 2.37305 186.166 2.52539C186.404 2.67383 186.59 2.86719 186.723 3.10547C186.859 3.33984 186.928 3.61914 186.928 3.94336C186.928 4.21289 186.861 4.45898 186.729 4.68164C186.6 4.90039 186.418 5.08984 186.184 5.25C185.953 5.40625 185.684 5.52734 185.375 5.61328C185.066 5.69922 184.736 5.74219 184.385 5.74219ZM183.529 5.33789H184.385C184.842 5.33789 185.236 5.38477 185.568 5.47852C185.904 5.56836 186.18 5.69531 186.395 5.85938C186.613 6.01953 186.775 6.20703 186.881 6.42188C186.986 6.63672 187.039 6.86719 187.039 7.11328C187.039 7.45312 186.967 7.74805 186.822 7.99805C186.678 8.24805 186.477 8.45508 186.219 8.61914C185.965 8.7793 185.674 8.89844 185.346 8.97656C185.018 9.05469 184.668 9.09375 184.297 9.09375C184.016 9.09375 183.725 9.0625 183.424 9C183.123 8.9375 182.842 8.83203 182.58 8.68359C182.322 8.53125 182.113 8.32812 181.953 8.07422C181.793 7.82031 181.713 7.50391 181.713 7.125H182.797C182.816 7.38281 182.895 7.58984 183.031 7.74609C183.168 7.90234 183.346 8.01562 183.564 8.08594C183.787 8.15625 184.031 8.19141 184.297 8.19141C184.648 8.19141 184.947 8.14844 185.193 8.0625C185.439 7.97656 185.627 7.85352 185.756 7.69336C185.885 7.5293 185.949 7.33594 185.949 7.11328C185.949 6.91406 185.914 6.74219 185.844 6.59766C185.777 6.44922 185.676 6.32812 185.539 6.23438C185.406 6.13672 185.24 6.06445 185.041 6.01758C184.846 5.9707 184.619 5.94727 184.361 5.94727H183.529V5.33789ZM191.217 3.12891L188.891 9H187.783L190.59 2.17383H191.299L191.217 3.12891ZM193.227 9L190.918 3.10547L190.842 2.17383H191.557L194.328 9H193.227ZM193.068 6.47461V7.36523H189.014V6.47461H193.068ZM196.016 2.17383L197.686 4.72266L199.367 2.17383H200.662L198.348 5.56055L200.744 9H199.449L197.703 6.4043L195.969 9H194.68L197.059 5.56055L194.732 2.17383H196.016ZM202.068 8.46094L206.428 2.17383L207.195 2.71289L202.842 9L202.068 8.46094ZM206.428 2.17383H207.518V9H206.428V2.17383ZM201.758 2.17383H202.842V9H201.758V2.17383ZM218.012 8.10938L217.906 10.9922H216.939V9H216.096V8.10938H218.012ZM216.113 8.10938V9H209.773V8.10938H216.113ZM213.605 2.17383V9H212.521V2.17383H213.605ZM216.998 2.17383V9H215.902V2.17383H216.998ZM210.225 2.17383V9H209.141V2.17383H210.225ZM223.859 8.10938V9H219.969V8.10938H223.859ZM220.232 2.17383V9H219.148V2.17383H220.232ZM223.35 5.02734V5.91211H219.969V5.02734H223.35ZM223.824 2.17383V3.07031H219.969V2.17383H223.824ZM229.807 5.18555V6.08203H225.863V5.18555H229.807ZM226.08 2.17383V9H224.996V2.17383H226.08ZM230.703 2.17383V9H229.619V2.17383H230.703ZM233.492 2.17383V9H232.408V2.17383H233.492ZM235.232 8.42578C235.232 8.24219 235.289 8.08789 235.402 7.96289C235.52 7.83398 235.688 7.76953 235.906 7.76953C236.125 7.76953 236.291 7.83398 236.404 7.96289C236.521 8.08789 236.58 8.24219 236.58 8.42578C236.58 8.60547 236.521 8.75781 236.404 8.88281C236.291 9.00781 236.125 9.07031 235.906 9.07031C235.688 9.07031 235.52 9.00781 235.402 8.88281C235.289 8.75781 235.232 8.60547 235.232 8.42578Z" fill="white"/>
</svg>
